<mxfile host="Electron" modified="2023-05-05T01:00:15.202Z" agent="Mozilla/5.0 (Windows NT 10.0; Win64; x64) AppleWebKit/537.36 (KHTML, like Gecko) draw.io/21.2.1 Chrome/112.0.5615.87 Electron/24.1.2 Safari/537.36" etag="Bpgx-GzEY4FRm03azG2T" version="21.2.1" type="device">
  <diagram name="Page-1" id="51UBkito5awnTQ_jN5C1">
    <mxGraphModel dx="1418" dy="828" grid="1" gridSize="10" guides="1" tooltips="1" connect="1" arrows="1" fold="1" page="1" pageScale="1" pageWidth="850" pageHeight="1100" math="0" shadow="0">
      <root>
        <mxCell id="0" />
        <mxCell id="1" parent="0" />
        <mxCell id="3d-xzousiEgNGckSdFBJ-6" value="$STATEMACHINE : MySm" style="shape=swimlane;rotatable=0;align=center;verticalAlign=top;fontFamily=Lucida Console;startSize=30;fontSize=14;fontStyle=1;fontColor=#FAFAFA;fillColor=#545454;swimlaneFillColor=default;rounded=1;arcSize=15;absoluteArcSize=1;comic=0;" parent="1" vertex="1">
          <mxGeometry x="30" y="160" width="790" height="540" as="geometry" />
        </mxCell>
        <mxCell id="3d-xzousiEgNGckSdFBJ-7" value=" " style="fontFamily=Lucida Console;align=left;verticalAlign=top;fillColor=none;gradientColor=none;strokeColor=none;rounded=0;spacingLeft=4;resizable=0;movable=0;deletable=0;rotatable=0;autosize=1;comic=0;" parent="3d-xzousiEgNGckSdFBJ-6" vertex="1" connectable="0">
          <mxGeometry y="30" width="30" height="20" as="geometry" />
        </mxCell>
        <mxCell id="3d-xzousiEgNGckSdFBJ-8" value="$initial_state" style="shape=ellipse;aspect=fixed;fillColor=#000000;resizable=0;rotatable=0;noLabel=1;editable=0;comic=0;" parent="3d-xzousiEgNGckSdFBJ-6" vertex="1">
          <mxGeometry x="67.5" y="50" width="25" height="25" as="geometry" />
        </mxCell>
        <mxCell id="3d-xzousiEgNGckSdFBJ-9" value="STATE_1" style="shape=swimlane;rotatable=0;align=center;verticalAlign=top;fontFamily=Lucida Console;startSize=30;fontSize=14;fontStyle=1;fontColor=#FAFAFA;fillColor=#545454;swimlaneFillColor=default;rounded=1;arcSize=15;absoluteArcSize=1;comic=0;STATESMITH_NOTES_VERTEX" parent="3d-xzousiEgNGckSdFBJ-6" vertex="1">
          <mxGeometry x="20" y="110" width="120" height="90" as="geometry" />
        </mxCell>
        <mxCell id="3d-xzousiEgNGckSdFBJ-10" value="" style="fontFamily=Lucida Console;align=left;verticalAlign=top;fillColor=none;gradientColor=none;strokeColor=none;rounded=0;spacingLeft=4;resizable=0;movable=0;deletable=0;rotatable=0;autosize=1;comic=0;" parent="3d-xzousiEgNGckSdFBJ-9" vertex="1" connectable="0">
          <mxGeometry y="30" width="50" height="40" as="geometry" />
        </mxCell>
        <mxCell id="3d-xzousiEgNGckSdFBJ-13" parent="3d-xzousiEgNGckSdFBJ-6" source="3d-xzousiEgNGckSdFBJ-8" target="3d-xzousiEgNGckSdFBJ-9" edge="1">
          <mxGeometry relative="1" as="geometry" />
        </mxCell>
        <mxCell id="3d-xzousiEgNGckSdFBJ-1" value="note c" style="shape=note;whiteSpace=wrap;html=1;backgroundOutline=1;darkOpacity=0.05;" parent="3d-xzousiEgNGckSdFBJ-6" vertex="1">
          <mxGeometry x="550" y="190" width="80" height="100" as="geometry" />
        </mxCell>
        <mxCell id="3d-xzousiEgNGckSdFBJ-2" value="note b" style="shape=note;size=20;whiteSpace=wrap;html=1;" parent="3d-xzousiEgNGckSdFBJ-6" vertex="1">
          <mxGeometry x="420" y="190" width="100" height="100" as="geometry" />
        </mxCell>
        <mxCell id="3d-xzousiEgNGckSdFBJ-3" value="stickyNote2" style="strokeWidth=1;shadow=0;dashed=0;align=left;html=1;shape=mxgraph.mockup.text.stickyNote2;fontColor=#666666;mainText=;fontSize=17;whiteSpace=wrap;fillColor=#ffffcc;strokeColor=#F62E00;spacingLeft=9;" parent="3d-xzousiEgNGckSdFBJ-6" vertex="1">
          <mxGeometry x="260" y="310" width="180" height="170" as="geometry" />
        </mxCell>
        <mxCell id="dyKfC978DSqIkyhEUavx-6" style="rounded=0;orthogonalLoop=1;jettySize=auto;html=1;exitX=0;exitY=0.5;exitDx=0;exitDy=0;exitPerimeter=0;entryX=1;entryY=0.5;entryDx=0;entryDy=0;" parent="3d-xzousiEgNGckSdFBJ-6" source="3d-xzousiEgNGckSdFBJ-4" target="3d-xzousiEgNGckSdFBJ-9" edge="1">
          <mxGeometry relative="1" as="geometry" />
        </mxCell>
        <mxCell id="3d-xzousiEgNGckSdFBJ-4" value="note2" style="shape=note2;boundedLbl=1;whiteSpace=wrap;html=1;size=25;verticalAlign=top;align=center;" parent="3d-xzousiEgNGckSdFBJ-6" vertex="1">
          <mxGeometry x="270" y="90" width="120" height="60" as="geometry" />
        </mxCell>
        <mxCell id="dyKfC978DSqIkyhEUavx-8" style="edgeStyle=orthogonalEdgeStyle;rounded=0;orthogonalLoop=1;jettySize=auto;html=1;" parent="3d-xzousiEgNGckSdFBJ-6" source="3d-xzousiEgNGckSdFBJ-5" target="3d-xzousiEgNGckSdFBJ-4" edge="1">
          <mxGeometry relative="1" as="geometry" />
        </mxCell>
        <mxCell id="3d-xzousiEgNGckSdFBJ-5" value="note a" style="shape=note;strokeWidth=2;fontSize=14;size=20;whiteSpace=wrap;html=1;fillColor=#fff2cc;strokeColor=#d6b656;fontColor=#666600;" parent="3d-xzousiEgNGckSdFBJ-6" vertex="1">
          <mxGeometry x="275" y="190" width="110.00000000000001" height="80" as="geometry" />
        </mxCell>
        <mxCell id="dyKfC978DSqIkyhEUavx-1" value="&lt;b&gt;$NOTES&lt;/b&gt;&lt;br&gt;Traditional Notes&lt;br&gt;https://github.com/StateSmith/StateSmith/issues/192&amp;nbsp;&amp;nbsp;" style="shape=rectangle;rounded=1;arcSize=15;absoluteArcSize=1;align=left;verticalAlign=top;whiteSpace=wrap;html=1;spacingLeft=4;strokeWidth=1;strokeColor=default;fillColor=#fff2cc;fontColor=#000000;gradientColor=#ffd966;" parent="3d-xzousiEgNGckSdFBJ-6" vertex="1">
          <mxGeometry x="450" y="330" width="320" height="70" as="geometry" />
        </mxCell>
        <mxCell id="dyKfC978DSqIkyhEUavx-2" value="note a" style="shape=note;strokeWidth=2;fontSize=14;size=20;whiteSpace=wrap;html=1;fillColor=#fff2cc;strokeColor=#d6b656;fontColor=#666600;" parent="1" vertex="1">
          <mxGeometry x="30" y="20" width="110.00000000000001" height="80" as="geometry" />
        </mxCell>
        <mxCell id="dyKfC978DSqIkyhEUavx-3" value="&lt;b&gt;$NOTES&lt;/b&gt;&lt;br&gt;Traditional Notes&lt;br&gt;https://github.com/StateSmith/StateSmith/issues/192&amp;nbsp;&amp;nbsp;" style="shape=rectangle;rounded=1;arcSize=15;absoluteArcSize=1;align=left;verticalAlign=top;whiteSpace=wrap;html=1;spacingLeft=4;strokeWidth=1;strokeColor=default;fillColor=#fff2cc;fontColor=#000000;gradientColor=#ffd966;" parent="1" vertex="1">
          <mxGeometry x="190" y="30" width="320" height="70" as="geometry" />
        </mxCell>
      </root>
    </mxGraphModel>
  </diagram>
</mxfile>
